# xmcd CD database file
#
# Track frame offsets:
#	150
#	21893
#	47278
#	72982
#	97285
#	115399
#	137878
#	159434
#	181465
#	211912
#	238084
#	260998
#	287323
#	313962
#	340440
#
# Disc length: 4775 seconds
#
# Revision: 0
# Processed by: cddbd v1.5.2PL0 Copyright (c) Steve Scherf et al.
# Submitted via: CDex 1.50
#
DISCID=e912a50f
DTITLE=Various Artist - Cafe Del Mar vol.13 cd2
DYEAR=2006
DGENRE=New Age
TTITLE0=VA - nera and felix - del mar
TTITLE1=VA - la caina - no talking
TTITLE2=VA - ibizarre - las brisas
TTITLE3=VA - rue du soleil - angel eyes
TTITLE4=VA - singas project - voice
TTITLE5=VA - melibea - lamento
TTITLE6=VA - yann kuhlmann feat. fuego - ha
TTITLE7=VA - mads arp feat. julie harringto
TTITLE8=VA - paco fernandez - flores de lib
TTITLE9=VA - jeff bennets lounge experience
TTITLE10=VA - luminous feat. julie harringto
TTITLE11=VA - pep llado feat. antonio martin
TTITLE12=VA - hey negrita - one mississippi
TTITLE13=VA - victor g. de la fuente feat. o
TTITLE14=VA - Viggo feat. Glow - Rivers flow
EXTD=YEAR: 2006
EXTT0=
EXTT1=
EXTT2=
EXTT3=
EXTT4=
EXTT5=
EXTT6=
EXTT7=
EXTT8=
EXTT9=
EXTT10=
EXTT11=
EXTT12=
EXTT13=
EXTT14=
PLAYORDER=
